<svg xmlns="http://www.w3.org/2000/svg" viewBox="0 0 900 580"><defs><linearGradient id="body" x2="0" y2="1"><stop stop-color="#ffa257"/><stop offset="1" stop-color="#e65919"/></linearGradient><linearGradient id="glass" x2="1" y2="1"><stop stop-color="#78959a"/><stop offset="1" stop-color="#192d32"/></linearGradient><filter id="shadow"><feGaussianBlur stdDeviation="14"/></filter></defs><ellipse cx="475" cy="465" rx="365" ry="24" fill="#000" opacity=".4" filter="url(#shadow)"/><g stroke-linejoin="round"><path d="M68 381l516-28 205 31-496 54z" fill="#242d2b"/><path d="M76 362l506-27 205 29-508 43z" fill="#6e7973"/><path d="M84 365l202 27 490-33" fill="none" stroke="#a8b4a8" stroke-width="3"/><path d="M314 407l480-40v38l-480 43z" fill="#d8682c"/><path d="M116 375l178 26v43l-178-29z" fill="#e98942"/><path d="M573 332l-10-130 109-7 79 57 54 122-125 20z" fill="url(#body)"/><path d="M678 207l67 54 34 74-96 8z" fill="url(#glass)" stroke="#bf501f" stroke-width="7"/><path d="M577 216l76-5 8 103-77 7z" fill="url(#glass)"/><path d="M584 332l78-7 7 58-80 6z" fill="#ee7025"/><path d="M610 339l23-2" stroke="#242d2b" stroke-width="6"/><path d="M687 358l108-9 11 43-111 12z" fill="#ffac66"/><path d="M716 369l66-5" stroke="#252d2b" stroke-width="10"/><path d="M681 351l20-2 2 14-20 2zM785 343l12-1 4 14-13 1z" fill="#fff5d3"/><path d="M679 405l130-13 3 20-130 15z" fill="#bac4ba"/><path d="M584 193l55-4 1 10-57 4z" fill="#ffc067"/><path d="M252 349l9-52 48-27 69-7 47 29 64 8 25 44-20 15-220 15z" fill="#d3dbd5"/><path d="M290 295l28-22 57-4 34 25z" fill="url(#glass)"/><path d="M346 274l1 21" stroke="#d3dbd5" stroke-width="6"/><path d="M270 326l219-13" stroke="#f4f3e9" stroke-width="3"/><path d="M98 439l25 4m31 4 25 4m31 4 25 4" stroke="#f9b265" stroke-width="5"/><g fill="#111918" stroke="#303c39" stroke-width="10"><ellipse cx="338" cy="440" rx="40" ry="48"/><ellipse cx="706" cy="428" rx="37" ry="47"/><ellipse cx="181" cy="420" rx="30" ry="39"/><circle cx="306" cy="351" r="24"/><circle cx="463" cy="340" r="24"/></g><g fill="#8f9e96" stroke="#d1d8ce" stroke-width="5"><ellipse cx="338" cy="440" rx="20" ry="26"/><ellipse cx="706" cy="428" rx="18" ry="25"/><ellipse cx="181" cy="420" rx="13" ry="20"/><circle cx="306" cy="351" r="11"/><circle cx="463" cy="340" r="11"/></g><path d="M537 354V236l-43-30-28 131" fill="none" stroke="#e67432" stroke-width="12"/><path d="M494 212l-29 88" stroke="#b5c1b8" stroke-width="3"/><text x="588" y="371" fill="#202a27" font-family="Arial" font-weight="900" font-size="14" transform="rotate(-5 588 371)">KAYANI</text></g></svg>
